<svg height="606" width="720" xmlns="http://www.w3.org/2000/svg">
<rect height="606" fill="#555" width="720"></rect>
<text fill="#7f7" font-family="Courier New" font-size="12" xml:space="preserve">
<tspan x="10" y="26">└─┬ gulp-base64@0.1.3 </tspan>
<tspan x="10" y="42">  ├── async@0.2.10 </tspan>
<tspan x="10" y="58">  ├── buffers@0.1.1 </tspan>
<tspan x="10" y="74">  ├── extend@1.2.1 </tspan>
<tspan x="10" y="90">  ├── mime@1.2.11 </tspan>
<tspan x="10" y="106">  ├─┬ request@2.33.0 </tspan>
<tspan x="10" y="122">  │ ├── aws-sign2@0.5.0 </tspan>
<tspan x="10" y="138">  │ ├── forever-agent@0.5.2 </tspan>
<tspan x="10" y="154">  │ ├─┬ form-data@0.1.4 </tspan>
<tspan x="10" y="170">  │ │ ├── async@0.9.2 </tspan>
<tspan x="10" y="186">  │ │ └─┬ combined-stream@0.0.7 </tspan>
<tspan x="10" y="202">  │ │   └── delayed-stream@0.0.5 </tspan>
<tspan x="10" y="218">  │ ├─┬ hawk@1.0.0 </tspan>
<tspan x="10" y="234">  │ │ ├── boom@0.4.2 </tspan>
<tspan x="10" y="250">  │ │ ├── cryptiles@0.2.2 </tspan>
<tspan x="10" y="266">  │ │ ├── hoek@0.9.1 </tspan>
<tspan x="10" y="282">  │ │ └── sntp@0.2.4 </tspan>
<tspan x="10" y="298">  │ ├─┬ http-signature@0.10.1 </tspan>
<tspan x="10" y="314">  │ │ ├── asn1@0.1.11 </tspan>
<tspan x="10" y="330">  │ │ ├── assert-plus@0.1.5 </tspan>
<tspan x="10" y="346">  │ │ └── ctype@0.5.3 </tspan>
<tspan x="10" y="362">  │ ├── json-stringify-safe@5.0.1 </tspan>
<tspan x="10" y="378">  │ ├── node-uuid@1.4.8 </tspan>
<tspan x="10" y="394">  │ ├── oauth-sign@0.3.0 </tspan>
<tspan x="10" y="410">  │ ├── qs@0.6.6 </tspan>
<tspan x="10" y="426">  │ ├─┬ tough-cookie@2.3.2 </tspan>
<tspan x="10" y="442">  │ │ └── punycode@1.4.1 </tspan>
<tspan x="10" y="458">  │ └── tunnel-agent@0.3.0 </tspan>
<tspan x="10" y="474">  └─┬ through2@0.4.2 </tspan>
<tspan x="10" y="490">    ├─┬ readable-stream@1.0.34 </tspan>
<tspan x="10" y="506">    │ ├── core-util-is@1.0.2 </tspan>
<tspan x="10" y="522">    │ ├── inherits@2.0.3 </tspan>
<tspan x="10" y="538">    │ ├── isarray@0.0.1 </tspan>
<tspan x="10" y="554">    │ └── string_decoder@0.10.31 </tspan>
<tspan x="10" y="570">    └─┬ xtend@2.1.2 </tspan>
<tspan x="10" y="586">      └── object-keys@0.4.0</tspan>
</text>
</svg>
